<?xml version="1.0" encoding="utf-8"?>
<!-- Generator: Adobe Illustrator 18.1.1, SVG Export Plug-In . SVG Version: 6.00 Build 0)  -->
<svg version="1.1" id="tallii-logo-svg" xmlns="http://www.w3.org/2000/svg" xmlns:xlink="http://www.w3.org/1999/xlink" x="0px"
	 y="0px" viewBox="0 0 1500 700" enable-background="new 0 0 1500 700" xml:space="preserve">
<g>
	<path fill="#d32f2f" d="M634.6,99.1h83.9v126.8h51.9v65.8h-51.8v231.2c0,9.8,0.9,17.6,2.9,23.1c2,5.5,5,9.6,9,12.3
		c4.1,2.8,9.4,4.5,16,5c6.6,0.5,14.6,0.8,23.9,0.8v79h-34.6c-19.3,0-35.3-3-48.1-9c-12.8-6-23.2-13.8-30.8-23.1
		c-7.7-9.3-13.4-19.9-16.9-31.7c-3.5-11.8-5.4-23.2-5.4-34.2V291.7h-41.9v-65.8h41.9V99.1L634.6,99.1z"/>
	<path fill="#d32f2f" d="M961.4,600.2h-1.7c-11,15.3-22.2,27.1-33.3,35.4c-11.3,8.3-27,12.3-47.3,12.3c-9.8,0-20.1-1.6-30.4-4.6
		c-10.5-3-20.2-8.5-29.2-16.5c-9-8-16.5-19.1-22.3-33.7c-5.8-14.6-8.7-33.3-8.7-56.4c0-23.6,2-44.3,5.8-62.1
		c3.8-17.8,10.9-32.6,21-44.4c10.1-11.8,23.7-20.6,40.8-26.3c17-5.8,38.7-8.7,65-8.7c6,0,12.1,0.3,18.1,0.8c6,0.5,13.5,1,22.3,1.7
		v-43.7c0-14.3-3-26.1-9-35.4c-6-9.3-17-14-32.9-14c-11,0-21,3.5-30,10.7c-9,7.1-14.9,17.6-17.7,31.3h-81.5
		c2.8-37.9,15.3-68,37.9-90.6c11-11,24.1-19.7,39.5-26c15.3-6.3,32.6-9.4,51.9-9.4c17.6,0,34,2.8,49.4,8.3
		c15.3,5.5,28.7,13.8,40,24.6c11.3,11,20.2,24.6,26.7,41.2c6.6,16.5,9.8,35.7,9.8,57.7V643h-83.9v-42.7H961.4z M961.4,463.7
		c-9.3-1.7-17-2.5-23.1-2.5c-18.1,0-33.6,4.2-46.5,12.7c-12.8,8.5-19.4,24-19.4,46.5c0,15.9,3.8,28.8,11.5,38.7
		c7.7,9.8,18.4,14.8,32.1,14.8c14.3,0,25.4-4.7,33.3-14c8-9.3,11.9-22.5,11.9-39.5v-56.8H961.4z"/>
	<path fill="#d32f2f" d="M1102,57h83.9v468.4c0,15.9,2.9,26.7,8.7,32.5c5.8,5.8,16.6,9.4,32.5,11.1v79c-19.3,0-36.6-1.6-52.3-4.6
		c-15.6-3-28.8-8.8-39.5-17.3c-10.7-8.5-18.9-20.4-24.6-35.8c-5.8-15.3-8.7-35.1-8.7-59.3V57z"/>
	<path fill="#d32f2f" d="M1255.1,57h83.9v468.4c0,15.9,2.9,26.7,8.7,32.5c5.8,5.8,16.6,9.4,32.5,11.1v79c-19.3,0-36.6-1.6-52.3-4.6
		c-15.6-3-28.8-8.8-39.5-17.3c-10.7-8.5-18.9-20.4-24.6-35.8c-5.8-15.3-8.7-35.1-8.7-59.3L1255.1,57L1255.1,57z"/>
	<path fill="#d32f2f" d="M1413.2,57h83.9v83.9h-83.9V57z M1413.2,225.7h83.9V643h-83.9V225.7z"/>
</g>
<polygon fill="#d32f2f" points="138.7,667.2 48.5,700 48.5,-32.8 138.7,16.4 "/>
<polygon fill="#d32f2f" points="272,667.2 181.8,634.5 181.8,49.2 272,16.4 "/>
<polygon fill="#d32f2f" points="405.3,601.7 315.3,650.8 315.3,16.4 405.3,65.5 "/>
<polygon fill="#d32f2f" points="538.6,700 448.6,650.8 448.6,49.2 538.6,0 "/>
<polygon fill="#d32f2f" points="562.5,549.9 581,686.4 15.5,102.2 2.9,0.9 "/>
</svg>
