<?xml version="1.0" encoding="utf-8"?>
<!-- Generator: Adobe Illustrator 18.1.1, SVG Export Plug-In . SVG Version: 6.00 Build 0)  -->
<svg version="1.1" id="tallii-logo-svg" xmlns="http://www.w3.org/2000/svg" xmlns:xlink="http://www.w3.org/1999/xlink" x="0px"
	 y="0px" viewBox="0 73.4 324 146.6" enable-background="new 0 73.4 324 146.6" xml:space="preserve">
<g>
	<path fill="#1976D2" d="M126.9,99.8h16.8v25.4h10.4v13.2h-10.4v46.2c0,2,0.2,3.5,0.6,4.6c0.4,1.1,1,1.9,1.8,2.5
		c0.8,0.6,1.9,0.9,3.2,1c1.3,0.1,2.9,0.2,4.8,0.2v15.8h-6.9c-3.9,0-7.1-0.6-9.6-1.8c-2.6-1.2-4.6-2.8-6.2-4.6
		c-1.5-1.9-2.7-4-3.4-6.3c-0.7-2.4-1.1-4.6-1.1-6.8v-50.7h-8.4v-13.2h8.4L126.9,99.8L126.9,99.8z"/>
	<path fill="#1976D2" d="M192.3,200h-0.3c-2.2,3.1-4.4,5.4-6.7,7.1c-2.3,1.7-5.4,2.5-9.5,2.5c-2,0-4-0.3-6.1-0.9
		c-2.1-0.6-4-1.7-5.8-3.3c-1.8-1.6-3.3-3.8-4.5-6.7c-1.2-2.9-1.7-6.7-1.7-11.3c0-4.7,0.4-8.9,1.2-12.4c0.8-3.6,2.2-6.5,4.2-8.9
		c2-2.4,4.7-4.1,8.2-5.3c3.4-1.2,7.7-1.7,13-1.7c1.2,0,2.4,0.1,3.6,0.2c1.2,0.1,2.7,0.2,4.5,0.3v-8.7c0-2.9-0.6-5.2-1.8-7.1
		c-1.2-1.9-3.4-2.8-6.6-2.8c-2.2,0-4.2,0.7-6,2.1c-1.8,1.4-3,3.5-3.5,6.3h-16.3c0.6-7.6,3.1-13.6,7.6-18.1c2.2-2.2,4.8-3.9,7.9-5.2
		c3.1-1.3,6.5-1.9,10.4-1.9c3.5,0,6.8,0.6,9.9,1.7c3.1,1.1,5.7,2.8,8,4.9c2.3,2.2,4,4.9,5.3,8.2c1.3,3.3,2,7.1,2,11.5v58.1h-16.8
		L192.3,200L192.3,200L192.3,200z M192.3,172.7c-1.9-0.3-3.4-0.5-4.6-0.5c-3.6,0-6.7,0.8-9.3,2.5c-2.6,1.7-3.9,4.8-3.9,9.3
		c0,3.2,0.8,5.8,2.3,7.7c1.5,2,3.7,3,6.4,3c2.9,0,5.1-0.9,6.7-2.8c1.6-1.9,2.4-4.5,2.4-7.9L192.3,172.7L192.3,172.7L192.3,172.7z"/>
	<path fill="#1976D2" d="M220.4,91.4h16.8v93.7c0,3.2,0.6,5.3,1.7,6.5c1.2,1.2,3.3,1.9,6.5,2.2v15.8c-3.9,0-7.3-0.3-10.5-0.9
		c-3.1-0.6-5.8-1.8-7.9-3.5c-2.1-1.7-3.8-4.1-4.9-7.2c-1.2-3.1-1.7-7-1.7-11.9V91.4z"/>
	<path fill="#1976D2" d="M251,91.4h16.8v93.7c0,3.2,0.6,5.3,1.7,6.5c1.2,1.2,3.3,1.9,6.5,2.2v15.8c-3.9,0-7.3-0.3-10.5-0.9
		c-3.1-0.6-5.8-1.8-7.9-3.5c-2.1-1.7-3.8-4.1-4.9-7.2c-1.2-3.1-1.7-7-1.7-11.9V91.4L251,91.4z"/>
	<path fill="#1976D2" d="M283.2,91.4H300v16.8h-16.8V91.4z M283.2,125.1H300v83.5h-16.8V125.1z"/>
	<path fill="#1976D2" d="M307.2,91.4H324v16.8h-16.8V91.4z M307.2,125.1H324v83.5h-16.8V125.1z"/>
</g>
<polygon fill="#1976D2" points="27.7,213.4 9.7,220 9.7,73.4 27.7,83.3 "/>
<polygon fill="#1976D2" points="54.4,213.4 36.4,206.9 36.4,89.8 54.4,83.3 "/>
<polygon fill="#1976D2" points="81.1,200.3 63.1,210.2 63.1,83.3 81.1,93.1 "/>
<polygon fill="#1976D2" points="107.7,220 89.7,210.2 89.7,89.8 107.7,80 "/>
<polygon fill="#1976D2" points="112.5,190 116.2,217.3 3.1,100.4 0.6,80.2 "/>
</svg>
